<svg width="215" height="24" viewBox="0 0 215 24" fill="none" xmlns="http://www.w3.org/2000/svg">
<path d="M5.47422 5.07812V14.0469H9.9586C10.5732 14.0469 11.1513 13.9323 11.693 13.7031C12.2346 13.4635 12.7086 13.1406 13.1148 12.7344C13.5211 12.3281 13.8388 11.8542 14.068 11.3125C14.3076 10.7604 14.4273 10.1771 14.4273 9.5625C14.4273 8.94792 14.3076 8.36979 14.068 7.82812C13.8388 7.27604 13.5211 6.79688 13.1148 6.39062C12.7086 5.98438 12.2346 5.66667 11.693 5.4375C11.1513 5.19792 10.5732 5.07812 9.9586 5.07812H5.47422ZM5.47422 23H0.989845V0.59375H9.9586C10.7815 0.59375 11.5732 0.703125 12.3336 0.921875C13.094 1.13021 13.8023 1.43229 14.4586 1.82812C15.1253 2.21354 15.7294 2.68229 16.2711 3.23438C16.8232 3.77604 17.2919 4.38021 17.6773 5.04688C18.0732 5.71354 18.3753 6.42708 18.5836 7.1875C18.8023 7.94792 18.9117 8.73958 18.9117 9.5625C18.9117 10.3333 18.8128 11.0833 18.6148 11.8125C18.4273 12.5417 18.1513 13.2344 17.7867 13.8906C17.4326 14.5469 16.9951 15.151 16.4742 15.7031C15.9534 16.2552 15.3701 16.7344 14.7242 17.1406L17.2086 23H12.443L10.4898 18.4844L5.47422 18.5156V23ZM34.4648 23H22.9453V6.19531H34.4648V9.55859H26.3086V12.9219H31.8281V16.2852H26.3086V19.6367H34.4648V23ZM51.0164 21.2773C50.2352 21.9492 49.3602 22.4648 48.3914 22.8242C47.4227 23.1836 46.4188 23.3633 45.3797 23.3633C44.5828 23.3633 43.8133 23.2578 43.0711 23.0469C42.3367 22.8438 41.6453 22.5547 40.9969 22.1797C40.3563 21.7969 39.7703 21.3398 39.2391 20.8086C38.7078 20.2773 38.2508 19.6914 37.868 19.0508C37.493 18.4023 37.2 17.7109 36.9891 16.9766C36.7859 16.2344 36.6844 15.4648 36.6844 14.668C36.6844 13.8711 36.7859 13.1016 36.9891 12.3594C37.2 11.6172 37.493 10.9258 37.868 10.2852C38.2508 9.63672 38.7078 9.04688 39.2391 8.51562C39.7703 7.98438 40.3563 7.53125 40.9969 7.15625C41.6453 6.77344 42.3367 6.48047 43.0711 6.27734C43.8133 6.06641 44.5828 5.96094 45.3797 5.96094C46.4188 5.96094 47.4227 6.14062 48.3914 6.5C49.3602 6.85156 50.2352 7.36719 51.0164 8.04688L49.2352 10.9766C48.743 10.4453 48.1609 10.0391 47.4891 9.75781C46.8172 9.46875 46.1141 9.32422 45.3797 9.32422C44.6375 9.32422 43.9422 9.46484 43.2938 9.74609C42.6453 10.0273 42.0789 10.4102 41.5945 10.8945C41.1102 11.3711 40.7273 11.9375 40.4461 12.5938C40.1648 13.2422 40.0242 13.9336 40.0242 14.668C40.0242 15.4023 40.1648 16.0938 40.4461 16.7422C40.7273 17.3828 41.1102 17.9453 41.5945 18.4297C42.0789 18.9141 42.6453 19.2969 43.2938 19.5781C43.9422 19.8594 44.6375 20 45.3797 20C46.1141 20 46.8172 19.8594 47.4891 19.5781C48.1609 19.2891 48.743 18.8789 49.2352 18.3477L51.0164 21.2773ZM57.5367 23H54.1734V6.19531H57.5367V23ZM65.2289 9.55859V16.2852H68.5922C69.0531 16.2852 69.4867 16.1992 69.893 16.0273C70.2992 15.8477 70.6547 15.6055 70.9594 15.3008C71.2641 14.9961 71.5023 14.6406 71.6742 14.2344C71.8539 13.8203 71.9438 13.3828 71.9438 12.9219C71.9438 12.4609 71.8539 12.0273 71.6742 11.6211C71.5023 11.207 71.2641 10.8477 70.9594 10.543C70.6547 10.2383 70.2992 10 69.893 9.82812C69.4867 9.64844 69.0531 9.55859 68.5922 9.55859H65.2289ZM65.2289 23H61.8656V6.19531H68.5922C69.2094 6.19531 69.8031 6.27734 70.3734 6.44141C70.9438 6.59766 71.475 6.82422 71.9672 7.12109C72.4672 7.41016 72.9203 7.76172 73.3266 8.17578C73.7406 8.58203 74.0922 9.03516 74.3813 9.53516C74.6781 10.0352 74.9047 10.5703 75.0609 11.1406C75.225 11.7109 75.307 12.3047 75.307 12.9219C75.307 13.8438 75.1313 14.7148 74.7797 15.5352C74.4281 16.3477 73.9477 17.0586 73.3383 17.668C72.7289 18.2773 72.0141 18.7578 71.1938 19.1094C70.3813 19.4609 69.5141 19.6367 68.5922 19.6367H65.2289V23ZM90.007 23H78.4875V6.19531H90.007V9.55859H81.8508V12.9219H87.3703V16.2852H81.8508V19.6367H90.007V23ZM106.493 5.07812V14.0469H110.977C111.592 14.0469 112.17 13.9323 112.712 13.7031C113.253 13.4635 113.727 13.1406 114.134 12.7344C114.54 12.3281 114.858 11.8542 115.087 11.3125C115.326 10.7604 115.446 10.1771 115.446 9.5625C115.446 8.94792 115.326 8.36979 115.087 7.82812C114.858 7.27604 114.54 6.79688 114.134 6.39062C113.727 5.98438 113.253 5.66667 112.712 5.4375C112.17 5.19792 111.592 5.07812 110.977 5.07812H106.493ZM106.493 23H102.009V0.59375H110.977C111.8 0.59375 112.592 0.703125 113.352 0.921875C114.113 1.13021 114.821 1.43229 115.477 1.82812C116.144 2.21354 116.748 2.68229 117.29 3.23438C117.842 3.77604 118.311 4.38021 118.696 5.04688C119.092 5.71354 119.394 6.42708 119.602 7.1875C119.821 7.94792 119.93 8.73958 119.93 9.5625C119.93 10.7917 119.696 11.9531 119.227 13.0469C118.759 14.1302 118.118 15.0781 117.305 15.8906C116.493 16.7031 115.54 17.3438 114.446 17.8125C113.363 18.2812 112.207 18.5156 110.977 18.5156H106.493V23ZM133.542 16.2852V12.9219C133.542 12.4609 133.452 12.0273 133.273 11.6211C133.101 11.207 132.863 10.8477 132.558 10.543C132.253 10.2383 131.894 10 131.48 9.82812C131.073 9.64844 130.64 9.55859 130.179 9.55859C129.718 9.55859 129.28 9.64844 128.866 9.82812C128.46 10 128.105 10.2383 127.8 10.543C127.495 10.8477 127.253 11.207 127.073 11.6211C126.902 12.0273 126.816 12.4609 126.816 12.9219V16.2852H133.542ZM136.905 23H133.542V19.6367H126.816V23H123.464V12.9219C123.464 11.9922 123.64 11.1211 123.991 10.3086C124.343 9.48828 124.82 8.77344 125.421 8.16406C126.03 7.55469 126.741 7.07422 127.554 6.72266C128.374 6.37109 129.249 6.19531 130.179 6.19531C131.109 6.19531 131.98 6.37109 132.792 6.72266C133.613 7.07422 134.327 7.55469 134.937 8.16406C135.546 8.77344 136.027 9.48828 136.378 10.3086C136.73 11.1211 136.905 11.9922 136.905 12.9219V23ZM152.789 23H141.023V6.19531H144.387V19.6367H152.789V23ZM167.266 23H155.747V6.19531H167.266V9.55859H159.11V12.9219H164.63V16.2852H159.11V19.6367H167.266V23ZM178.597 23H175.245V9.55859H170.194V6.19531H183.636V9.55859H178.597V23ZM194.872 23H191.52V9.55859H186.469V6.19531H199.911V9.55859H194.872V23ZM214.291 23H202.772V6.19531H214.291V9.55859H206.135V12.9219H211.655V16.2852H206.135V19.6367H214.291V23Z" fill="#E06812"/>
<path d="M5.47422 5.07812V4.57812H4.97422V5.07812H5.47422ZM5.47422 14.0469H4.97422V14.5469H5.47422V14.0469ZM11.693 13.7031L11.8878 14.1637L11.8952 14.1604L11.693 13.7031ZM14.068 11.3125L13.6093 11.1134L13.6075 11.1177L14.068 11.3125ZM14.068 7.82812L13.6061 8.01986L13.6107 8.03038L14.068 7.82812ZM11.693 5.4375L11.4907 5.89483L11.4982 5.89798L11.693 5.4375ZM5.47422 23V23.5H5.97422V23H5.47422ZM0.989845 23H0.489845V23.5H0.989845V23ZM0.989845 0.59375V0.09375H0.489845V0.59375H0.989845ZM12.3336 0.921875L12.1954 1.40243L12.2015 1.4041L12.3336 0.921875ZM14.4586 1.82812L14.2003 2.25634L14.2083 2.26099L14.4586 1.82812ZM16.2711 3.23438L15.9141 3.58461L15.9209 3.59128L16.2711 3.23438ZM17.6773 5.04688L17.2444 5.29714L17.2474 5.30214L17.6773 5.04688ZM18.5836 7.1875L18.1013 7.31963L18.1031 7.32573L18.5836 7.1875ZM18.6148 11.8125L18.1323 11.6815L18.1306 11.688L18.6148 11.8125ZM17.7867 13.8906L17.3496 13.6478L17.3467 13.6532L17.7867 13.8906ZM14.7242 17.1406L14.458 16.7174L14.0978 16.944L14.2639 17.3358L14.7242 17.1406ZM17.2086 23V23.5H17.9637L17.6689 22.8048L17.2086 23ZM12.443 23L11.9841 23.1985L12.1145 23.5H12.443V23ZM10.4898 18.4844L10.9488 18.2859L10.8175 17.9823L10.4867 17.9844L10.4898 18.4844ZM5.47422 18.5156L5.47111 18.0156L4.97422 18.0187V18.5156H5.47422ZM4.97422 5.07812V14.0469H5.97422V5.07812H4.97422ZM5.47422 14.5469H9.9586V13.5469H5.47422V14.5469ZM9.9586 14.5469C10.637 14.5469 11.2817 14.42 11.8878 14.1636L11.4982 13.2426C11.0209 13.4446 10.5093 13.5469 9.9586 13.5469V14.5469ZM11.8952 14.1604C12.4915 13.8966 13.0172 13.5391 13.4684 13.0879L12.7613 12.3808C12.4 12.7421 11.9778 13.0304 11.4907 13.2459L11.8952 14.1604ZM13.4684 13.0879C13.9213 12.6351 14.2748 12.1069 14.5285 11.5073L13.6075 11.1177C13.4028 11.6015 13.1209 12.0212 12.7613 12.3808L13.4684 13.0879ZM14.5266 11.5115C14.7941 10.8953 14.9273 10.2441 14.9273 9.5625H13.9273C13.9273 10.1101 13.821 10.6255 13.6093 11.1135L14.5266 11.5115ZM14.9273 9.5625C14.9273 8.88094 14.7941 8.23365 14.5252 7.62587L13.6107 8.03038C13.821 8.50593 13.9273 9.01489 13.9273 9.5625H14.9273ZM14.5298 7.63644C14.2765 7.02632 13.9229 6.49153 13.4684 6.03707L12.7613 6.74418C13.1193 7.10222 13.4011 7.52576 13.6062 8.01981L14.5298 7.63644ZM13.4684 6.03707C13.0155 5.5842 12.4873 5.23066 11.8878 4.97702L11.4982 5.89798C11.982 6.10267 12.4017 6.38455 12.7613 6.74418L13.4684 6.03707ZM11.8952 4.98023C11.2874 4.71141 10.6402 4.57812 9.9586 4.57812V5.57812C10.5062 5.57812 11.0152 5.68443 11.4907 5.89477L11.8952 4.98023ZM9.9586 4.57812H5.47422V5.57812H9.9586V4.57812ZM5.47422 22.5H0.989845V23.5H5.47422V22.5ZM1.48985 23V0.59375H0.489845V23H1.48985ZM0.989845 1.09375H9.9586V0.09375H0.989845V1.09375ZM9.9586 1.09375C10.7366 1.09375 11.4817 1.19707 12.1954 1.40239L12.4718 0.441362C11.6647 0.209175 10.8264 0.09375 9.9586 0.09375V1.09375ZM12.2015 1.4041C12.9188 1.60064 13.5846 1.88485 14.2003 2.25627L14.7168 1.39998C14.0201 0.979728 13.2692 0.659772 12.4657 0.439646L12.2015 1.4041ZM14.2083 2.26099C14.8357 2.62369 15.404 3.06458 15.9142 3.58455L16.628 2.8842C16.0548 2.30001 15.4148 1.80339 14.7088 1.39526L14.2083 2.26099ZM15.9209 3.59128C16.4409 4.10144 16.8818 4.66976 17.2445 5.29713L18.1102 4.79662C17.7021 4.09066 17.2055 3.45065 16.6213 2.87747L15.9209 3.59128ZM17.2474 5.30214C17.62 5.92964 17.9047 6.60167 18.1014 7.31962L19.0658 7.05538C18.8459 6.2525 18.5264 5.49745 18.1073 4.79161L17.2474 5.30214ZM18.1031 7.32573C18.3084 8.03944 18.4117 8.78446 18.4117 9.5625H19.4117C19.4117 8.6947 19.2963 7.8564 19.0641 7.04927L18.1031 7.32573ZM18.4117 9.5625C18.4117 10.29 18.3184 10.9959 18.1323 11.6815L19.0974 11.9435C19.3071 11.1708 19.4117 10.3767 19.4117 9.5625H18.4117ZM18.1306 11.688C17.9537 12.376 17.6935 13.0289 17.3496 13.6478L18.2238 14.1334C18.6091 13.4398 18.901 12.7073 19.0991 11.937L18.1306 11.688ZM17.3467 13.6532C17.0136 14.2703 16.602 14.8391 16.1105 15.36L16.8379 16.0462C17.3882 15.463 17.8515 14.8234 18.2267 14.1281L17.3467 13.6532ZM16.1105 15.36C15.6188 15.8812 15.0683 16.3335 14.458 16.7174L14.9904 17.5639C15.6718 17.1352 16.288 16.6292 16.8379 16.0462L16.1105 15.36ZM14.2639 17.3358L16.7483 23.1952L17.6689 22.8048L15.1846 16.9454L14.2639 17.3358ZM17.2086 22.5H12.443V23.5H17.2086V22.5ZM12.9019 22.8015L10.9488 18.2859L10.0309 18.6829L11.9841 23.1985L12.9019 22.8015ZM10.4867 17.9844L5.47111 18.0156L5.47734 19.0156L10.493 18.9844L10.4867 17.9844ZM4.97422 18.5156V23H5.97422V18.5156H4.97422ZM34.4648 23V23.5H34.9648V23H34.4648ZM22.9453 23H22.4453V23.5H22.9453V23ZM22.9453 6.19531V5.69531H22.4453V6.19531H22.9453ZM34.4648 6.19531H34.9648V5.69531H34.4648V6.19531ZM34.4648 9.55859V10.0586H34.9648V9.55859H34.4648ZM26.3086 9.55859V9.05859H25.8086V9.55859H26.3086ZM26.3086 12.9219H25.8086V13.4219H26.3086V12.9219ZM31.8281 12.9219H32.3281V12.4219H31.8281V12.9219ZM31.8281 16.2852V16.7852H32.3281V16.2852H31.8281ZM26.3086 16.2852V15.7852H25.8086V16.2852H26.3086ZM26.3086 19.6367H25.8086V20.1367H26.3086V19.6367ZM34.4648 19.6367H34.9648V19.1367H34.4648V19.6367ZM34.4648 22.5H22.9453V23.5H34.4648V22.5ZM23.4453 23V6.19531H22.4453V23H23.4453ZM22.9453 6.69531H34.4648V5.69531H22.9453V6.69531ZM33.9648 6.19531V9.55859H34.9648V6.19531H33.9648ZM34.4648 9.05859H26.3086V10.0586H34.4648V9.05859ZM25.8086 9.55859V12.9219H26.8086V9.55859H25.8086ZM26.3086 13.4219H31.8281V12.4219H26.3086V13.4219ZM31.3281 12.9219V16.2852H32.3281V12.9219H31.3281ZM31.8281 15.7852H26.3086V16.7852H31.8281V15.7852ZM25.8086 16.2852V19.6367H26.8086V16.2852H25.8086ZM26.3086 20.1367H34.4648V19.1367H26.3086V20.1367ZM33.9648 19.6367V23H34.9648V19.6367H33.9648ZM51.0164 21.2773L51.3424 21.6564L51.6639 21.3799L51.4436 21.0176L51.0164 21.2773ZM43.0711 23.0469L43.2078 22.5659L43.2044 22.565L43.0711 23.0469ZM40.9969 22.1797L40.7404 22.6089L40.7466 22.6125L40.9969 22.1797ZM37.868 19.0508L37.4351 19.3011L37.4388 19.3073L37.868 19.0508ZM36.9891 16.9766L36.5068 17.1086L36.5085 17.1146L36.9891 16.9766ZM36.9891 12.3594L36.5081 12.2227L36.5068 12.2274L36.9891 12.3594ZM37.868 10.2852L37.4374 10.031L37.4365 10.0326L37.868 10.2852ZM40.9969 7.15625L41.2495 7.58776L41.2511 7.58682L40.9969 7.15625ZM43.0711 6.27734L43.2044 6.75926L43.2078 6.7583L43.0711 6.27734ZM48.3914 6.5L48.2175 6.96879L48.2208 6.97001L48.3914 6.5ZM51.0164 8.04688L51.4436 8.30663L51.6627 7.94638L51.3446 7.66965L51.0164 8.04688ZM49.2352 10.9766L48.8684 11.3164L49.3184 11.8021L49.6624 11.2363L49.2352 10.9766ZM47.4891 9.75781L47.2914 10.2171L47.296 10.219L47.4891 9.75781ZM41.5945 10.8945L41.9452 11.251L41.9481 11.2481L41.5945 10.8945ZM40.4461 12.5938L40.9048 12.7927L40.9057 12.7907L40.4461 12.5938ZM40.4461 16.7422L39.9874 16.9411L39.9883 16.9432L40.4461 16.7422ZM47.4891 19.5781L47.6821 20.0394L47.6867 20.0374L47.4891 19.5781ZM49.2352 18.3477L49.6624 18.0879L49.3184 17.5221L48.8684 18.0078L49.2352 18.3477ZM50.6904 20.8983C49.9542 21.5313 49.1308 22.0166 48.2175 22.3554L48.5653 23.293C49.5895 22.913 50.5161 22.3671 51.3424 21.6564L50.6904 20.8983ZM48.2175 22.3554C47.3047 22.694 46.3597 22.8633 45.3797 22.8633V23.8633C46.4778 23.8633 47.5406 23.6731 48.5653 23.293L48.2175 22.3554ZM45.3797 22.8633C44.6275 22.8633 43.9041 22.7638 43.2078 22.5659L42.9344 23.5278C43.7225 23.7518 44.5381 23.8633 45.3797 23.8633V22.8633ZM43.2044 22.565C42.5102 22.373 41.8582 22.1002 41.2472 21.7469L40.7466 22.6125C41.4324 23.0091 42.1632 23.3145 42.9378 23.5288L43.2044 22.565ZM41.2534 21.7505C40.6483 21.3889 40.0949 20.9574 39.5926 20.455L38.8855 21.1621C39.4457 21.7223 40.0642 22.2048 40.7404 22.6089L41.2534 21.7505ZM39.5926 20.455C39.0903 19.9527 38.6587 19.3993 38.2972 18.7943L37.4388 19.3073C37.8428 19.9835 38.3253 20.602 38.8855 21.1621L39.5926 20.455ZM38.3008 18.8005C37.9466 18.1881 37.6695 17.5345 37.4696 16.8385L36.5085 17.1146C36.7305 17.8874 37.0393 18.6166 37.4351 19.3011L38.3008 18.8005ZM37.4713 16.8446C37.2804 16.1469 37.1844 15.4218 37.1844 14.668H36.1844C36.1844 15.5078 36.2915 16.3218 36.5068 17.1086L37.4713 16.8446ZM37.1844 14.668C37.1844 13.9141 37.2804 13.189 37.4713 12.4914L36.5068 12.2274C36.2915 13.0141 36.1844 13.8281 36.1844 14.668H37.1844ZM37.47 12.4961C37.6699 11.7928 37.9466 11.1406 38.2995 10.5377L37.4365 10.0326C37.0393 10.711 36.7301 11.4415 36.5081 12.2227L37.47 12.4961ZM38.2985 10.5393C38.66 9.92705 39.0912 9.37061 39.5926 8.86918L38.8855 8.16207C38.3244 8.72314 37.8416 9.34638 37.4374 10.031L38.2985 10.5393ZM39.5926 8.86918C40.094 8.36775 40.6461 7.94093 41.2495 7.58776L40.7443 6.72474C40.0664 7.12157 39.4466 7.601 38.8855 8.16207L39.5926 8.86918ZM41.2511 7.58682C41.8612 7.22663 42.5119 6.95079 43.2044 6.75925L42.9378 5.79544C42.1616 6.01014 41.4294 6.32025 40.7427 6.72568L41.2511 7.58682ZM43.2078 6.7583C43.9041 6.56041 44.6275 6.46094 45.3797 6.46094V5.46094C44.5381 5.46094 43.7225 5.57241 42.9344 5.79639L43.2078 6.7583ZM45.3797 6.46094C46.3597 6.46094 47.3047 6.63017 48.2175 6.96878L48.5653 6.03122C47.5406 5.65108 46.4778 5.46094 45.3797 5.46094V6.46094ZM48.2208 6.97001C49.1315 7.30049 49.9531 7.78457 50.6882 8.4241L51.3446 7.66965C50.5172 6.94981 49.5888 6.40263 48.562 6.02999L48.2208 6.97001ZM50.5892 7.78712L48.8079 10.7168L49.6624 11.2363L51.4436 8.30663L50.5892 7.78712ZM49.6019 10.6368C49.0609 10.0528 48.4195 9.60527 47.6821 9.29659L47.296 10.219C47.9023 10.4729 48.425 10.8379 48.8684 11.3164L49.6019 10.6368ZM47.6867 9.29852C46.9521 8.98249 46.1817 8.82422 45.3797 8.82422V9.82422C46.0464 9.82422 46.6823 9.95501 47.2915 10.2171L47.6867 9.29852ZM45.3797 8.82422C44.5725 8.82422 43.8092 8.97754 43.0948 9.28738L43.4927 10.2048C44.0752 9.95215 44.7025 9.82422 45.3797 9.82422V8.82422ZM43.0948 9.28738C42.3905 9.59284 41.7712 10.0107 41.241 10.541L41.9481 11.2481C42.3866 10.8096 42.9001 10.4618 43.4927 10.2048L43.0948 9.28738ZM41.2439 10.5381C40.7108 11.0625 40.292 11.6839 39.9865 12.3968L40.9057 12.7907C41.1626 12.1911 41.5095 11.6796 41.9452 11.2509L41.2439 10.5381ZM39.9874 12.3948C39.6778 13.1085 39.5242 13.8679 39.5242 14.668H40.5242C40.5242 13.9993 40.6519 13.3759 40.9048 12.7927L39.9874 12.3948ZM39.5242 14.668C39.5242 15.4681 39.6778 16.2275 39.9874 16.9411L40.9048 16.5432C40.6519 15.96 40.5242 15.3366 40.5242 14.668H39.5242ZM39.9883 16.9432C40.294 17.6395 40.7117 18.254 41.241 18.7832L41.9481 18.0761C41.5086 17.6366 41.1607 17.1262 40.9039 16.5412L39.9883 16.9432ZM41.241 18.7832C41.7712 19.3135 42.3905 19.7314 43.0948 20.0368L43.4927 19.1194C42.9001 18.8624 42.3866 18.5146 41.9481 18.0761L41.241 18.7832ZM43.0948 20.0368C43.8092 20.3467 44.5725 20.5 45.3797 20.5V19.5C44.7025 19.5 44.0752 19.3721 43.4927 19.1194L43.0948 20.0368ZM45.3797 20.5C46.1798 20.5 46.9486 20.3464 47.6821 20.0393L47.296 19.1169C46.6858 19.3723 46.0483 19.5 45.3797 19.5V20.5ZM47.6867 20.0374C48.422 19.7211 49.0618 19.2704 49.6019 18.6875L48.8684 18.0078C48.4241 18.4874 47.8999 18.8571 47.2915 19.1188L47.6867 20.0374ZM48.8079 18.6074L50.5892 21.5371L51.4436 21.0176L49.6624 18.0879L48.8079 18.6074ZM57.5367 23V23.5H58.0367V23H57.5367ZM54.1734 23H53.6734V23.5H54.1734V23ZM54.1734 6.19531V5.69531H53.6734V6.19531H54.1734ZM57.5367 6.19531H58.0367V5.69531H57.5367V6.19531ZM57.5367 22.5H54.1734V23.5H57.5367V22.5ZM54.6734 23V6.19531H53.6734V23H54.6734ZM54.1734 6.69531H57.5367V5.69531H54.1734V6.69531ZM57.0367 6.19531V23H58.0367V6.19531H57.0367ZM65.2289 9.55859V9.05859H64.7289V9.55859H65.2289ZM65.2289 16.2852H64.7289V16.7852H65.2289V16.2852ZM69.893 16.0273L70.0878 16.4879L70.0952 16.4846L69.893 16.0273ZM71.6742 14.2344L71.2155 14.0353L71.2137 14.0396L71.6742 14.2344ZM71.6742 11.6211L71.2123 11.8128L71.217 11.8233L71.6742 11.6211ZM69.893 9.82812L69.6907 10.2855L69.6982 10.2886L69.893 9.82812ZM65.2289 23V23.5H65.7289V23H65.2289ZM61.8656 23H61.3656V23.5H61.8656V23ZM61.8656 6.19531V5.69531H61.3656V6.19531H61.8656ZM70.3734 6.44141L70.2352 6.92196L70.2413 6.92364L70.3734 6.44141ZM71.9672 7.12109L71.7089 7.54931L71.7169 7.55396L71.9672 7.12109ZM73.3266 8.17578L72.9696 8.52602L72.9764 8.53269L73.3266 8.17578ZM74.3813 9.53516L73.9484 9.78542L73.9513 9.79043L74.3813 9.53516ZM75.0609 11.1406L74.5787 11.2728L74.5804 11.2789L75.0609 11.1406ZM74.7797 15.5352L75.2386 15.7337L75.2393 15.7321L74.7797 15.5352ZM71.1938 19.1094L70.9968 18.6498L70.9952 18.6505L71.1938 19.1094ZM65.2289 19.6367V19.1367H64.7289V19.6367H65.2289ZM64.7289 9.55859V16.2852H65.7289V9.55859H64.7289ZM65.2289 16.7852H68.5922V15.7852H65.2289V16.7852ZM68.5922 16.7852C69.117 16.7852 69.6171 16.6869 70.0878 16.4878L69.6982 15.5669C69.3563 15.7115 68.9893 15.7852 68.5922 15.7852V16.7852ZM70.0952 16.4846C70.5561 16.2808 70.9633 16.004 71.3129 15.6543L70.6058 14.9472C70.3461 15.207 70.0423 15.4145 69.6907 15.5701L70.0952 16.4846ZM71.3129 15.6543C71.6642 15.303 71.9384 14.8933 72.1347 14.4292L71.2137 14.0396C71.0663 14.3879 70.8639 14.6892 70.6058 14.9472L71.3129 15.6543ZM72.1329 14.4334C72.3404 13.9552 72.4438 13.4498 72.4438 12.9219H71.4438C71.4438 13.3158 71.3674 13.6854 71.2156 14.0353L72.1329 14.4334ZM72.4438 12.9219C72.4438 12.394 72.3404 11.8912 72.1315 11.4188L71.217 11.8233C71.3674 12.1635 71.4438 12.5279 71.4438 12.9219H72.4438ZM72.136 11.4294C71.9401 10.9573 71.6658 10.5423 71.3129 10.1894L70.6058 10.8965C70.8623 11.153 71.0646 11.4568 71.2124 11.8128L72.136 11.4294ZM71.3129 10.1894C70.9616 9.8381 70.5519 9.564 70.0878 9.36764L69.6982 10.2886C70.0465 10.436 70.3478 10.6385 70.6058 10.8965L71.3129 10.1894ZM70.0952 9.37086C69.6229 9.16193 69.1201 9.05859 68.5922 9.05859V10.0586C68.9862 10.0586 69.3506 10.1349 69.6907 10.2854L70.0952 9.37086ZM68.5922 9.05859H65.2289V10.0586H68.5922V9.05859ZM65.2289 22.5H61.8656V23.5H65.2289V22.5ZM62.3656 23V6.19531H61.3656V23H62.3656ZM61.8656 6.69531H68.5922V5.69531H61.8656V6.69531ZM68.5922 6.69531C69.1645 6.69531 69.7116 6.77129 70.2352 6.92192L70.5117 5.96089C69.8947 5.78339 69.2543 5.69531 68.5922 5.69531V6.69531ZM70.2413 6.92364C70.7686 7.06809 71.2572 7.27678 71.7089 7.54924L72.2254 6.69295C71.6928 6.37166 71.1189 6.12722 70.5056 5.95918L70.2413 6.92364ZM71.7169 7.55396C72.1776 7.8203 72.5949 8.144 72.9697 8.52595L73.6835 7.82561C73.2457 7.37943 72.7567 7.00001 72.2174 6.68823L71.7169 7.55396ZM72.9764 8.53269C73.3583 8.90743 73.682 9.32471 73.9484 9.78541L74.8141 9.2849C74.5023 8.74561 74.1229 8.25664 73.6767 7.81888L72.9764 8.53269ZM73.9513 9.79043C74.2249 10.2513 74.4341 10.7449 74.5787 11.2727L75.5432 11.0085C75.3753 10.3957 75.1313 9.81906 74.8112 9.27989L73.9513 9.79043ZM74.5804 11.2789C74.7311 11.8025 74.807 12.3496 74.807 12.9219H75.807C75.807 12.2598 75.719 11.6194 75.5415 11.0024L74.5804 11.2789ZM74.807 12.9219C74.807 13.7783 74.6441 14.5822 74.3201 15.3382L75.2393 15.7321C75.6184 14.8475 75.807 13.9092 75.807 12.9219H74.807ZM74.3208 15.3366C73.9936 16.0929 73.5483 16.7508 72.9847 17.3144L73.6918 18.0215C74.347 17.3664 74.8627 16.6024 75.2386 15.7337L74.3208 15.3366ZM72.9847 17.3144C72.4219 17.8772 71.7608 18.3224 70.9968 18.6498L71.3907 19.5689C72.2674 19.1932 73.0359 18.6775 73.6918 18.0215L72.9847 17.3144ZM70.9952 18.6505C70.248 18.9738 69.4487 19.1367 68.5922 19.1367V20.1367C69.5795 20.1367 70.5145 19.9481 71.3923 19.5683L70.9952 18.6505ZM68.5922 19.1367H65.2289V20.1367H68.5922V19.1367ZM64.7289 19.6367V23H65.7289V19.6367H64.7289ZM90.007 23V23.5H90.507V23H90.007ZM78.4875 23H77.9875V23.5H78.4875V23ZM78.4875 6.19531V5.69531H77.9875V6.19531H78.4875ZM90.007 6.19531H90.507V5.69531H90.007V6.19531ZM90.007 9.55859V10.0586H90.507V9.55859H90.007ZM81.8508 9.55859V9.05859H81.3508V9.55859H81.8508ZM81.8508 12.9219H81.3508V13.4219H81.8508V12.9219ZM87.3703 12.9219H87.8703V12.4219H87.3703V12.9219ZM87.3703 16.2852V16.7852H87.8703V16.2852H87.3703ZM81.8508 16.2852V15.7852H81.3508V16.2852H81.8508ZM81.8508 19.6367H81.3508V20.1367H81.8508V19.6367ZM90.007 19.6367H90.507V19.1367H90.007V19.6367ZM90.007 22.5H78.4875V23.5H90.007V22.5ZM78.9875 23V6.19531H77.9875V23H78.9875ZM78.4875 6.69531H90.007V5.69531H78.4875V6.69531ZM89.507 6.19531V9.55859H90.507V6.19531H89.507ZM90.007 9.05859H81.8508V10.0586H90.007V9.05859ZM81.3508 9.55859V12.9219H82.3508V9.55859H81.3508ZM81.8508 13.4219H87.3703V12.4219H81.8508V13.4219ZM86.8703 12.9219V16.2852H87.8703V12.9219H86.8703ZM87.3703 15.7852H81.8508V16.7852H87.3703V15.7852ZM81.3508 16.2852V19.6367H82.3508V16.2852H81.3508ZM81.8508 20.1367H90.007V19.1367H81.8508V20.1367ZM89.507 19.6367V23H90.507V19.6367H89.507ZM106.493 5.07812V4.57812H105.993V5.07812H106.493ZM106.493 14.0469H105.993V14.5469H106.493V14.0469ZM112.712 13.7031L112.907 14.1637L112.914 14.1604L112.712 13.7031ZM115.087 11.3125L114.628 11.1134L114.626 11.1177L115.087 11.3125ZM115.087 7.82812L114.625 8.01986L114.629 8.03038L115.087 7.82812ZM112.712 5.4375L112.509 5.89483L112.517 5.89798L112.712 5.4375ZM106.493 23V23.5H106.993V23H106.493ZM102.009 23H101.509V23.5H102.009V23ZM102.009 0.59375V0.09375H101.509V0.59375H102.009ZM113.352 0.921875L113.214 1.40243L113.22 1.4041L113.352 0.921875ZM115.477 1.82812L115.219 2.25634L115.227 2.26099L115.477 1.82812ZM117.29 3.23438L116.933 3.58461L116.94 3.59128L117.29 3.23438ZM118.696 5.04688L118.263 5.29714L118.266 5.30214L118.696 5.04688ZM119.602 7.1875L119.12 7.31963L119.122 7.32573L119.602 7.1875ZM119.227 13.0469L119.686 13.2454L119.687 13.2438L119.227 13.0469ZM114.446 17.8125L114.249 17.3529L114.248 17.3536L114.446 17.8125ZM106.493 18.5156V18.0156H105.993V18.5156H106.493ZM105.993 5.07812V14.0469H106.993V5.07812H105.993ZM106.493 14.5469H110.977V13.5469H106.493V14.5469ZM110.977 14.5469C111.656 14.5469 112.3 14.42 112.907 14.1636L112.517 13.2426C112.04 13.4446 111.528 13.5469 110.977 13.5469V14.5469ZM112.914 14.1604C113.51 13.8966 114.036 13.5391 114.487 13.0879L113.78 12.3808C113.419 12.7421 112.997 13.0304 112.509 13.2459L112.914 14.1604ZM114.487 13.0879C114.94 12.6351 115.294 12.1069 115.547 11.5073L114.626 11.1177C114.422 11.6015 114.14 12.0212 113.78 12.3808L114.487 13.0879ZM115.545 11.5115C115.813 10.8953 115.946 10.2441 115.946 9.5625H114.946C114.946 10.1101 114.84 10.6255 114.628 11.1135L115.545 11.5115ZM115.946 9.5625C115.946 8.88094 115.813 8.23365 115.544 7.62587L114.629 8.03038C114.84 8.50593 114.946 9.01489 114.946 9.5625H115.946ZM115.549 7.63644C115.295 7.02632 114.942 6.49153 114.487 6.03707L113.78 6.74418C114.138 7.10222 114.42 7.52576 114.625 8.01981L115.549 7.63644ZM114.487 6.03707C114.034 5.5842 113.506 5.23066 112.907 4.97702L112.517 5.89798C113.001 6.10267 113.42 6.38455 113.78 6.74418L114.487 6.03707ZM112.914 4.98023C112.306 4.71141 111.659 4.57812 110.977 4.57812V5.57812C111.525 5.57812 112.034 5.68443 112.509 5.89477L112.914 4.98023ZM110.977 4.57812H106.493V5.57812H110.977V4.57812ZM106.493 22.5H102.009V23.5H106.493V22.5ZM102.509 23V0.59375H101.509V23H102.509ZM102.009 1.09375H110.977V0.09375H102.009V1.09375ZM110.977 1.09375C111.755 1.09375 112.5 1.19707 113.214 1.40239L113.491 0.441362C112.683 0.209175 111.845 0.09375 110.977 0.09375V1.09375ZM113.22 1.4041C113.938 1.60064 114.603 1.88485 115.219 2.25627L115.736 1.39998C115.039 0.979728 114.288 0.659772 113.484 0.439646L113.22 1.4041ZM115.227 2.26099C115.854 2.62369 116.423 3.06458 116.933 3.58455L117.647 2.8842C117.074 2.30001 116.434 1.80339 115.728 1.39526L115.227 2.26099ZM116.94 3.59128C117.46 4.10144 117.901 4.66976 118.263 5.29713L119.129 4.79662C118.721 4.09066 118.224 3.45065 117.64 2.87747L116.94 3.59128ZM118.266 5.30214C118.639 5.92964 118.923 6.60167 119.12 7.31962L120.085 7.05538C119.865 6.2525 119.545 5.49745 119.126 4.79161L118.266 5.30214ZM119.122 7.32573C119.327 8.03944 119.43 8.78446 119.43 9.5625H120.43C120.43 8.6947 120.315 7.8564 120.083 7.04927L119.122 7.32573ZM119.43 9.5625C119.43 10.7262 119.209 11.8205 118.768 12.8499L119.687 13.2438C120.183 12.0858 120.43 10.8571 120.43 9.5625H119.43ZM118.768 12.8483C118.324 13.8754 117.719 14.7704 116.952 15.5371L117.659 16.2442C118.517 15.3859 119.193 14.385 119.686 13.2454L118.768 12.8483ZM116.952 15.5371C116.186 16.303 115.287 16.9083 114.249 17.3529L114.643 18.2721C115.793 17.7792 116.8 17.1033 117.659 16.2442L116.952 15.5371ZM114.248 17.3536C113.229 17.7941 112.141 18.0156 110.977 18.0156V19.0156C112.272 19.0156 113.496 18.7684 114.645 18.2714L114.248 17.3536ZM110.977 18.0156H106.493V19.0156H110.977V18.0156ZM105.993 18.5156V23H106.993V18.5156H105.993ZM133.542 16.2852V16.7852H134.042V16.2852H133.542ZM133.273 11.6211L132.811 11.8128L132.815 11.8233L133.273 11.6211ZM131.48 9.82812L131.277 10.2855L131.288 10.2899L131.48 9.82812ZM128.866 9.82812L129.061 10.2886L129.065 10.2868L128.866 9.82812ZM127.073 11.6211L126.615 11.422L126.613 11.4263L127.073 11.6211ZM126.816 16.2852H126.316V16.7852H126.816V16.2852ZM136.905 23V23.5H137.405V23H136.905ZM133.542 23H133.042V23.5H133.542V23ZM133.542 19.6367H134.042V19.1367H133.542V19.6367ZM126.816 19.6367V19.1367H126.316V19.6367H126.816ZM126.816 23V23.5H127.316V23H126.816ZM123.464 23H122.964V23.5H123.464V23ZM123.991 10.3086L124.45 10.5072L124.451 10.5056L123.991 10.3086ZM125.421 8.16406L125.068 7.8105L125.065 7.8128L125.421 8.16406ZM127.554 6.72266L127.357 6.26308L127.355 6.26377L127.554 6.72266ZM132.792 6.72266L132.594 7.18154L132.595 7.18223L132.792 6.72266ZM136.378 10.3086L135.919 10.5056L135.919 10.5071L136.378 10.3086ZM134.042 16.2852V12.9219H133.042V16.2852H134.042ZM134.042 12.9219C134.042 12.394 133.939 11.8912 133.73 11.4188L132.815 11.8233C132.966 12.1635 133.042 12.5279 133.042 12.9219H134.042ZM133.734 11.4294C133.538 10.9573 133.264 10.5423 132.911 10.1894L132.204 10.8965C132.461 11.153 132.663 11.4568 132.811 11.8128L133.734 11.4294ZM132.911 10.1894C132.558 9.83652 132.143 9.56229 131.671 9.36633L131.288 10.2899C131.644 10.4377 131.948 10.64 132.204 10.8965L132.911 10.1894ZM131.682 9.37086C131.21 9.16193 130.707 9.05859 130.179 9.05859V10.0586C130.573 10.0586 130.937 10.1349 131.277 10.2854L131.682 9.37086ZM130.179 9.05859C129.651 9.05859 129.146 9.16192 128.667 9.36945L129.065 10.2868C129.415 10.135 129.785 10.0586 130.179 10.0586V9.05859ZM128.672 9.36764C128.207 9.564 127.798 9.8381 127.446 10.1894L128.154 10.8965C128.412 10.6385 128.713 10.436 129.061 10.2886L128.672 9.36764ZM127.446 10.1894C127.095 10.5406 126.818 10.9531 126.615 11.422L127.532 11.8201C127.688 11.4609 127.895 11.1547 128.154 10.8965L127.446 10.1894ZM126.613 11.4263C126.414 11.8969 126.316 12.3971 126.316 12.9219H127.316C127.316 12.5248 127.389 12.1578 127.534 11.8159L126.613 11.4263ZM126.316 12.9219V16.2852H127.316V12.9219H126.316ZM126.816 16.7852H133.542V15.7852H126.816V16.7852ZM136.905 22.5H133.542V23.5H136.905V22.5ZM134.042 23V19.6367H133.042V23H134.042ZM133.542 19.1367H126.816V20.1367H133.542V19.1367ZM126.316 19.6367V23H127.316V19.6367H126.316ZM126.816 22.5H123.464V23.5H126.816V22.5ZM123.964 23V12.9219H122.964V23H123.964ZM123.964 12.9219C123.964 12.057 124.127 11.2538 124.45 10.5071L123.533 10.11C123.152 10.9883 122.964 11.9274 122.964 12.9219H123.964ZM124.451 10.5056C124.779 9.74024 125.221 9.07833 125.777 8.51533L125.065 7.8128C124.418 8.46854 123.907 9.23632 123.532 10.1116L124.451 10.5056ZM125.775 8.51762C126.338 7.95403 126.996 7.50877 127.752 7.18154L127.355 6.26377C126.487 6.63967 125.723 7.15534 125.068 7.81051L125.775 8.51762ZM127.751 7.18223C128.506 6.85845 129.314 6.69531 130.179 6.69531V5.69531C129.184 5.69531 128.242 5.88374 127.357 6.26308L127.751 7.18223ZM130.179 6.69531C131.044 6.69531 131.847 6.85845 132.594 7.18154L132.991 6.26377C132.112 5.88373 131.173 5.69531 130.179 5.69531V6.69531ZM132.595 7.18223C133.359 7.50964 134.02 7.95482 134.583 8.51762L135.29 7.81051C134.634 7.15455 133.866 6.63879 132.989 6.26308L132.595 7.18223ZM134.583 8.51762C135.146 9.08041 135.591 9.74159 135.919 10.5056L136.838 10.1116C136.462 9.23498 135.946 8.46647 135.29 7.81051L134.583 8.51762ZM135.919 10.5071C136.242 11.2538 136.405 12.057 136.405 12.9219H137.405C137.405 11.9274 137.217 10.9883 136.837 10.11L135.919 10.5071ZM136.405 12.9219V23H137.405V12.9219H136.405ZM152.789 23V23.5H153.289V23H152.789ZM141.023 23H140.523V23.5H141.023V23ZM141.023 6.19531V5.69531H140.523V6.19531H141.023ZM144.387 6.19531H144.887V5.69531H144.387V6.19531ZM144.387 19.6367H143.887V20.1367H144.387V19.6367ZM152.789 19.6367H153.289V19.1367H152.789V19.6367ZM152.789 22.5H141.023V23.5H152.789V22.5ZM141.523 23V6.19531H140.523V23H141.523ZM141.023 6.69531H144.387V5.69531H141.023V6.69531ZM143.887 6.19531V19.6367H144.887V6.19531H143.887ZM144.387 20.1367H152.789V19.1367H144.387V20.1367ZM152.289 19.6367V23H153.289V19.6367H152.289ZM167.266 23V23.5H167.766V23H167.266ZM155.747 23H155.247V23.5H155.747V23ZM155.747 6.19531V5.69531H155.247V6.19531H155.747ZM167.266 6.19531H167.766V5.69531H167.266V6.19531ZM167.266 9.55859V10.0586H167.766V9.55859H167.266ZM159.11 9.55859V9.05859H158.61V9.55859H159.11ZM159.11 12.9219H158.61V13.4219H159.11V12.9219ZM164.63 12.9219H165.13V12.4219H164.63V12.9219ZM164.63 16.2852V16.7852H165.13V16.2852H164.63ZM159.11 16.2852V15.7852H158.61V16.2852H159.11ZM159.11 19.6367H158.61V20.1367H159.11V19.6367ZM167.266 19.6367H167.766V19.1367H167.266V19.6367ZM167.266 22.5H155.747V23.5H167.266V22.5ZM156.247 23V6.19531H155.247V23H156.247ZM155.747 6.69531H167.266V5.69531H155.747V6.69531ZM166.766 6.19531V9.55859H167.766V6.19531H166.766ZM167.266 9.05859H159.11V10.0586H167.266V9.05859ZM158.61 9.55859V12.9219H159.61V9.55859H158.61ZM159.11 13.4219H164.63V12.4219H159.11V13.4219ZM164.13 12.9219V16.2852H165.13V12.9219H164.13ZM164.63 15.7852H159.11V16.7852H164.63V15.7852ZM158.61 16.2852V19.6367H159.61V16.2852H158.61ZM159.11 20.1367H167.266V19.1367H159.11V20.1367ZM166.766 19.6367V23H167.766V19.6367H166.766ZM178.597 23V23.5H179.097V23H178.597ZM175.245 23H174.745V23.5H175.245V23ZM175.245 9.55859H175.745V9.05859H175.245V9.55859ZM170.194 9.55859H169.694V10.0586H170.194V9.55859ZM170.194 6.19531V5.69531H169.694V6.19531H170.194ZM183.636 6.19531H184.136V5.69531H183.636V6.19531ZM183.636 9.55859V10.0586H184.136V9.55859H183.636ZM178.597 9.55859V9.05859H178.097V9.55859H178.597ZM178.597 22.5H175.245V23.5H178.597V22.5ZM175.745 23V9.55859H174.745V23H175.745ZM175.245 9.05859H170.194V10.0586H175.245V9.05859ZM170.694 9.55859V6.19531H169.694V9.55859H170.694ZM170.194 6.69531H183.636V5.69531H170.194V6.69531ZM183.136 6.19531V9.55859H184.136V6.19531H183.136ZM183.636 9.05859H178.597V10.0586H183.636V9.05859ZM178.097 9.55859V23H179.097V9.55859H178.097ZM194.872 23V23.5H195.372V23H194.872ZM191.52 23H191.02V23.5H191.52V23ZM191.52 9.55859H192.02V9.05859H191.52V9.55859ZM186.469 9.55859H185.969V10.0586H186.469V9.55859ZM186.469 6.19531V5.69531H185.969V6.19531H186.469ZM199.911 6.19531H200.411V5.69531H199.911V6.19531ZM199.911 9.55859V10.0586H200.411V9.55859H199.911ZM194.872 9.55859V9.05859H194.372V9.55859H194.872ZM194.872 22.5H191.52V23.5H194.872V22.5ZM192.02 23V9.55859H191.02V23H192.02ZM191.52 9.05859H186.469V10.0586H191.52V9.05859ZM186.969 9.55859V6.19531H185.969V9.55859H186.969ZM186.469 6.69531H199.911V5.69531H186.469V6.69531ZM199.411 6.19531V9.55859H200.411V6.19531H199.411ZM199.911 9.05859H194.872V10.0586H199.911V9.05859ZM194.372 9.55859V23H195.372V9.55859H194.372ZM214.291 23V23.5H214.791V23H214.291ZM202.772 23H202.272V23.5H202.772V23ZM202.772 6.19531V5.69531H202.272V6.19531H202.772ZM214.291 6.19531H214.791V5.69531H214.291V6.19531ZM214.291 9.55859V10.0586H214.791V9.55859H214.291ZM206.135 9.55859V9.05859H205.635V9.55859H206.135ZM206.135 12.9219H205.635V13.4219H206.135V12.9219ZM211.655 12.9219H212.155V12.4219H211.655V12.9219ZM211.655 16.2852V16.7852H212.155V16.2852H211.655ZM206.135 16.2852V15.7852H205.635V16.2852H206.135ZM206.135 19.6367H205.635V20.1367H206.135V19.6367ZM214.291 19.6367H214.791V19.1367H214.291V19.6367ZM214.291 22.5H202.772V23.5H214.291V22.5ZM203.272 23V6.19531H202.272V23H203.272ZM202.772 6.69531H214.291V5.69531H202.772V6.69531ZM213.791 6.19531V9.55859H214.791V6.19531H213.791ZM214.291 9.05859H206.135V10.0586H214.291V9.05859ZM205.635 9.55859V12.9219H206.635V9.55859H205.635ZM206.135 13.4219H211.655V12.4219H206.135V13.4219ZM211.155 12.9219V16.2852H212.155V12.9219H211.155ZM211.655 15.7852H206.135V16.7852H211.655V15.7852ZM205.635 16.2852V19.6367H206.635V16.2852H205.635ZM206.135 20.1367H214.291V19.1367H206.135V20.1367ZM213.791 19.6367V23H214.791V19.6367H213.791Z" fill="#E06812"/>
</svg>
